<?xml version="1.0" encoding="UTF-8" standalone="no"?>
<!DOCTYPE svg PUBLIC "-//W3C//DTD SVG 1.1//EN" "http://www.w3.org/Graphics/SVG/1.1/DTD/svg11.dtd">
<svg width="100%" height="100%" viewBox="0 0 3415 2723" version="1.1" xmlns="http://www.w3.org/2000/svg" xmlns:xlink="http://www.w3.org/1999/xlink" xml:space="preserve" xmlns:serif="http://www.serif.com/" style="fill-rule:evenodd;clip-rule:evenodd;stroke-linecap:round;stroke-linejoin:round;stroke-miterlimit:1.5;">
    <g transform="matrix(1,0,0,1,-1335.540741,-21701.827294)">
        <g>
            <g id="Corps" transform="matrix(1.139879,0,0,1.139879,-10030.037686,10314.975577)">
                <path d="M11456.949,12328.962L10428.907,12333.206C10428.907,12333.206 10007.303,11817.623 10015.395,11803.324C10039.021,11761.574 10343.918,11084.071 10361.253,11053.1C10384.775,11011.076 10788.328,10389.637 11456.432,10393.886" style="fill:rgb(163,177,138);fill-opacity:0;"/>
                <path d="M11456.949,12328.962L10428.907,12333.206C10428.907,12333.206 10007.303,11817.623 10015.395,11803.324C10039.021,11761.574 10343.918,11084.071 10361.253,11053.1C10384.775,11011.076 10788.328,10389.637 11456.432,10393.886" style="fill:none;stroke:rgb(163,177,138);stroke-width:88.83px;"/>
            </g>
            <g transform="matrix(-1.139879,0,0,1.139879,16086.457686,10295.834561)">
                <path d="M11780.394,10437.381C11780.394,10437.381 11922.242,10295.979 11953.275,10268.326C12006.4,10220.988 12294.659,9987.042 12497.076,10067.389C12637.657,10123.192 12667.172,10330.013 12665.988,10514.299C12664.302,10776.921 12561.35,11065.638 12561.35,11065.638C12561.35,11065.638 12492.96,10890.388 12210.366,10669.963C11948.369,10465.604 11780.394,10437.381 11780.394,10437.381Z" style="fill:white;fill-opacity:0;stroke:rgb(163,177,138);stroke-width:88.83px;"/>
            </g>
            <g transform="matrix(1.139879,0,0,1.139879,-10030.037686,10314.975577)">
                <path d="M10930.66,10501.256C10930.66,10501.256 10789.978,10601.091 10699.361,10675.203C10579.653,10773.109 10504.609,10831.771 10504.609,10831.771C10504.609,10831.771 10363.847,10329.997 10500.386,10276.657C10639.861,10222.169 10894.526,10453.909 10930.66,10501.256Z" style="fill:rgb(41,44,49);fill-opacity:0;stroke:rgb(163,177,138);stroke-width:88.83px;"/>
            </g>
            <g transform="matrix(1.139879,0,0,1.139879,-10010.409004,10312.982087)">
                <path d="M10239.916,12112.577C10239.916,12112.577 10426.31,11932.606 10606.405,11889.903C10786.501,11847.2 10935.901,11808.406 11010.042,11783.331C11333.011,11674.097 11446.874,11279.127 10914.786,11139.452C10728.675,11090.597 10636.859,11160.551 10379.893,11234.996C10305.719,11256.485 10286.437,11241.412 10286.437,11241.412L10016.114,11808.92L10239.916,12112.577Z" style="fill:white;fill-opacity:0;stroke:rgb(163,177,138);stroke-width:88.83px;"/>
            </g>
            <g transform="matrix(1.071107,0,0,1.064775,-9320.287979,11162.05994)">
                <path d="M10584.465,11404.616C10582.58,11385.977 10847.063,11361.396 11024.865,11391.3C11083.779,11401.208 11120.198,11413.482 11159.541,11447.978C11186.58,11471.685 11174.077,11522.312 11140.475,11558.409C11106.976,11594.394 11057.615,11625.188 11001.267,11639.935C10970.339,11648.03 10850.35,11673.91 10810.424,11577.899C10777.989,11499.899 10775.041,11457.728 10775.041,11443.469C10775.041,11429.21 10587.218,11431.833 10584.465,11404.616Z" style="fill:rgb(163,177,138);stroke:rgb(163,177,138);stroke-width:94.81px;"/>
            </g>
            <g id="Corps1" serif:id="Corps" transform="matrix(-1.139879,0,0,1.139879,16116.090935,10314.975577)">
                <path d="M11456.949,12328.962L10428.907,12333.206C10428.907,12333.206 10007.303,11817.623 10015.395,11803.324C10039.021,11761.574 10343.918,11084.071 10361.253,11053.1C10384.775,11011.076 10788.328,10389.637 11456.432,10393.886" style="fill:white;fill-opacity:0;"/>
                <path d="M11456.949,12328.962L10428.907,12333.206C10428.907,12333.206 10007.303,11817.623 10015.395,11803.324C10039.021,11761.574 10343.918,11084.071 10361.253,11053.1C10384.775,11011.076 10788.328,10389.637 11456.432,10393.886" style="fill:none;stroke:rgb(163,177,138);stroke-width:88.83px;"/>
            </g>
            <g transform="matrix(1.139879,0,0,1.139879,-10000.404436,10295.834561)">
                <path d="M11780.394,10437.381C11780.394,10437.381 11922.242,10295.979 11953.275,10268.326C12006.4,10220.988 12294.659,9987.042 12497.076,10067.389C12637.657,10123.192 12667.172,10330.013 12665.988,10514.299C12664.302,10776.921 12561.35,11065.638 12561.35,11065.638C12561.35,11065.638 12492.96,10890.388 12210.366,10669.963C11948.369,10465.604 11780.394,10437.381 11780.394,10437.381Z" style="fill:rgb(174,81,81);fill-opacity:0;stroke:rgb(163,177,138);stroke-width:88.83px;"/>
            </g>
            <g transform="matrix(-1.139879,0,0,1.139879,16116.090935,10314.975577)">
                <path d="M10930.66,10501.256C10930.66,10501.256 10789.978,10601.091 10699.361,10675.203C10579.653,10773.109 10504.609,10831.771 10504.609,10831.771C10504.609,10831.771 10363.847,10329.997 10500.386,10276.657C10639.861,10222.169 10894.526,10453.909 10930.66,10501.256Z" style="fill:rgb(41,44,49);fill-opacity:0;stroke:rgb(163,177,138);stroke-width:88.83px;"/>
            </g>
            <g transform="matrix(-1.139879,0,0,1.139879,16096.462254,10312.982087)">
                <path d="M10233.283,12112.577C10233.283,12112.577 10426.31,11932.606 10606.405,11889.903C10786.501,11847.2 10935.901,11808.406 11010.042,11783.331C11333.011,11674.097 11446.874,11279.127 10914.786,11139.452C10728.675,11090.597 10636.859,11160.551 10379.893,11234.996C10305.719,11256.485 10286.437,11241.412 10286.437,11241.412L10016.114,11808.92L10233.283,12112.577Z" style="fill:white;fill-opacity:0;stroke:rgb(163,177,138);stroke-width:88.83px;"/>
            </g>
            <g transform="matrix(-1.071107,0,0,1.064775,15397.845047,11153.746864)">
                <path d="M10584.465,11404.616C10582.58,11385.977 10847.063,11361.396 11024.865,11391.3C11083.779,11401.208 11120.198,11413.482 11159.541,11447.978C11186.58,11471.685 11174.077,11522.312 11140.475,11558.409C11106.976,11594.394 11057.615,11625.188 11001.267,11639.935C10970.339,11648.03 10850.35,11673.91 10810.424,11577.899C10777.989,11499.899 10775.041,11457.728 10775.041,11443.469C10775.041,11429.21 10587.218,11431.833 10584.465,11404.616Z" style="fill:rgb(163,177,138);stroke:rgb(163,177,138);stroke-width:94.81px;"/>
            </g>
            <g transform="matrix(0.906264,0,0,0.847243,-3054.861535,4024.017986)">
                <ellipse cx="7495.637" cy="22839.012" rx="57.835" ry="55.353" style="fill:rgb(52,78,65);"/>
            </g>
            <g transform="matrix(1.748695,0,0,1.861158,-10560.184371,-19099.327306)">
                <ellipse cx="7495.637" cy="22839.012" rx="57.835" ry="55.353" style="fill:rgb(52,78,65);fill-opacity:0.98;"/>
            </g>
            <g transform="matrix(1.748695,0,0,1.861158,-9369.414457,-19099.327306)">
                <ellipse cx="7495.637" cy="22839.012" rx="57.835" ry="55.353" style="fill:rgb(52,78,65);fill-opacity:0.98;"/>
            </g>
            <g id="Nez" transform="matrix(1.16648,-0.006729,0.006065,1.051411,-10392.449409,11470.971439)">
                <path d="M11444.582,12193.657C11430.969,12193.696 11417.43,12181.323 11417.634,12156.678C11418.03,12108.751 11418.309,12026.769 11418.309,12026.769C11418.309,12026.769 11358.226,11987.354 11311.859,11926.657C11229.879,11819.341 11234.281,11696.412 11447.051,11697.676" style="fill:rgb(163,177,138);stroke:rgb(163,177,138);stroke-width:25.89px;"/>
            </g>
            <g id="Nez1" serif:id="Nez" transform="matrix(-1.16648,-0.006729,-0.006065,1.051411,16451.436706,11470.971439)">
                <path d="M11444.582,12193.657C11430.969,12193.696 11417.43,12181.323 11417.634,12156.678C11418.03,12108.751 11418.309,12026.769 11418.309,12026.769C11418.309,12026.769 11358.226,11987.354 11311.859,11926.657C11229.879,11819.341 11234.281,11696.412 11447.051,11697.676" style="fill:rgb(163,177,138);stroke:rgb(163,177,138);stroke-width:25.89px;"/>
            </g>
        </g>
    </g>
</svg>
